<svg width="18" height="18" viewBox="0 0 18 18" fill="none" xmlns="http://www.w3.org/2000/svg">
<path d="M17.92 5.27999C17.85 3.83999 17.52 2.56 16.47 1.51C15.42 0.459997 14.14 0.13 12.7 0.06C11.21 -0.02 6.76 -0.02 5.28 0.06C3.84 0.13 2.57001 0.459997 1.51001 1.51C0.450012 2.56 0.13 3.83999 0.06 5.27999C-0.02 6.76999 -0.02 11.22 0.06 12.71C0.13 14.15 0.460012 15.43 1.51001 16.48C2.57001 17.53 3.84 17.86 5.28 17.93C6.77 18.01 11.22 18.01 12.7 17.93C14.14 17.86 15.42 17.53 16.47 16.48C17.52 15.43 17.85 14.15 17.92 12.71C18 11.22 18 6.77 17.92 5.29V5.27999ZM8.98001 13.74C6.36001 13.74 4.23001 11.61 4.23001 8.98999C4.23001 6.36999 6.36001 4.23999 8.98001 4.23999C11.6 4.23999 13.73 6.36999 13.73 8.98999C13.73 11.61 11.6 13.74 8.98001 13.74ZM14.5 4.48999C13.95 4.48999 13.5 4.03999 13.5 3.48999C13.5 2.93999 13.94 2.48999 14.5 2.48999C15.05 2.48999 15.5 2.93999 15.5 3.48999C15.5 4.03999 15.05 4.48999 14.5 4.48999ZM12.23 8.98999C12.23 10.78 10.77 12.24 8.98001 12.24C7.19001 12.24 5.73001 10.78 5.73001 8.98999C5.73001 7.19999 7.19001 5.73999 8.98001 5.73999C10.77 5.73999 12.23 7.19999 12.23 8.98999Z" fill="white"/>
</svg>
