<svg width="19" height="19" viewBox="0 0 19 19" fill="none" xmlns="http://www.w3.org/2000/svg">
<path d="M4.04068 18.0007H0.250684V6.63069H4.04068V18.0007ZM4.42068 2.21069C4.42068 1.01069 3.47069 0.0406844 2.27069 0.000684383C1.05069 -0.0293156 0.0306844 0.930678 0.000684383 2.15068C-0.0293156 3.37068 0.930678 4.39068 2.15068 4.42068C3.39068 4.43068 4.40068 3.45069 4.42068 2.21069ZM17.9507 11.1307C17.9507 7.59069 15.6607 6.51068 13.7107 6.51068C12.3407 6.47068 11.0507 7.14068 10.3007 8.28068V6.64068H6.64068V18.0107H10.4307V12.1107C10.4307 12.0507 10.4307 11.9907 10.4307 11.9307C10.4307 11.9307 10.4307 11.9307 10.4307 11.9207C10.3507 10.7107 11.2707 9.66069 12.4807 9.58069C13.4707 9.58069 14.2207 10.2207 14.2207 12.0207V18.0107H18.0107L17.9607 11.1407L17.9507 11.1307Z" fill="white"/>
</svg>
